<?xml version="1.0" encoding="utf-8"?>
<!-- Generator: Adobe Illustrator 16.0.0, SVG Export Plug-In . SVG Version: 6.00 Build 0)  -->
<!DOCTYPE svg PUBLIC "-//W3C//DTD SVG 1.1//EN" "http://www.w3.org/Graphics/SVG/1.1/DTD/svg11.dtd">
<svg version="1.1" id="Layer_1" xmlns="http://www.w3.org/2000/svg" xmlns:xlink="http://www.w3.org/1999/xlink" x="0px" y="0px"
	 width="516px" height="480px" viewBox="44.5 0 516 480" enable-background="new 44.5 0 516 480" xml:space="preserve">
<path d="M511.926,362.7V128.1L331.375,232.35l-22.6,13.07V480 M302.525,0L99.385,117.3l81.62,47.12l203.14-117.3 M414.346,64.57
	l-203.121,117.3l15.3,8.84l76,43.9l75.58-43.6l127.559-73.6 M203.245,258l-2-4.56l-2.03,2.67l-1.6-4.4l-2.68,2.4l-1.27-4.4
	l-2.75,1.9l-1.6-4.55l-2.4,2.33l-1.55-5l-2.27,3.06l-1.14-4.8l-2.5,3.18l-1.58-4.75l-1.8,2.9l-1-3.9v-64.5l-82-47.4v234.599
	L296.265,480V245.4l-91.54-52.85v62.65"/>
</svg>
