<?xml version="1.0" encoding="utf-8"?>
<!-- Generator: Adobe Illustrator 16.0.0, SVG Export Plug-In . SVG Version: 6.00 Build 0)  -->
<!DOCTYPE svg PUBLIC "-//W3C//DTD SVG 1.1//EN" "http://www.w3.org/Graphics/SVG/1.1/DTD/svg11.dtd">
<svg version="1.1" id="Layer_1" xmlns="http://www.w3.org/2000/svg" xmlns:xlink="http://www.w3.org/1999/xlink" x="0px" y="0px"
	 width="513px" height="489px" viewBox="79.5 37.5 513 489" enable-background="new 79.5 37.5 513 489" xml:space="preserve">
<path d="M307,440h180.03c12.2,0,26.12-10.07,30-21.76l10.479-31.4l19,6.32L536.11,424.56c-6.601,19.86-28.2,35.44-49,35.44H307V440z
	 M376.6,200h0.4c83.36,0,150,49.98,150,110h20c0-72.32-76.2-129.68-169.2-130L376.6,200L376.6,200z"/>
<path d="M373.15,300H527.05c22.061,0,39.95,17.88,39.95,40.1V359.9c0,22.149-17.82,40.1-39.95,40.1H350.08l4.6-20h172.37
	c11.04,0,19.95-8.95,19.95-20.1V340.1c0-11.16-8.92-20.1-19.95-20.1h-158.5L373.15,300z"/>
<path d="M459.93,367.07c3.9,3.9,10.24,3.9,14.141,0l50-50L509.93,302.93l-42.899,42.961l-42.96-43l-14.141,14.1l50,50V367.07z
	 M272.77,192.57l-14.62-82.94l-19.7,3.47l13.1,74.34l-22.2-10.84L217,106.72c-0.96-5.43,2.67-10.62,8.1-11.58l39.4-6.95
	c5.44-1,10.63,2.6,11.6,8.1l15.57,88.3l-18.93,7.9L272.77,192.57z M346.73,274.4l31-115.7l-19.301-5.2l-32.14,119.94l-1.8-26.56
	l-8.4-12.88l25.5-95.32c1.4-5.34,6.9-8.5,12.2-7.07l38.7,10.4c5.33,1.48,8.5,6.9,7.069,12.3L368.16,271.47l-21.53,3.05L346.73,274.4
	z M190.06,249.7l-8.8-125.82l-19.95,1.4l6.1,86.07l-22.7-38.33l-3.9-56.32c-0.4-5.5,3.77-10.3,9.28-10.67l39.9-2.8
	c5.5-0.38,10.3,3.78,10.68,9.28l9.2,131.4l-9.83,22.4l-9.8-16.5L190.06,249.7z"/>
<path d="M186.76,282.5l-44.7-105.3l-18.4,7.8l41,96.6l-22.12-0.92l-41.2-97.06c-2.16-5.1,0.2-10.96,5.3-13.1l36.82-15.64
	c5.08-2.16,10.95,0.2,13.1,5.3L208.9,283.4l-22.12-0.9H186.76z M305.859,285.43l8.101-115.5l-19.96-1.4l-8.3,118.7l-20.17,1.78
	l9.22-131.8c0.38-5.5,5.16-9.6,10.67-9.3l39.9,2.8c5.5,0.4,9.67,5.2,9.279,10.7l-8.55,122.3l-20.18,1.8L305.859,285.43z"/>
<path d="M239.54,290.5l-7.75-110.86l-20,1.4l7.3,105.4l-20.36-4.07l-7.68-109.92c-0.4-5.5,3.74-10.3,9.24-10.67l39.9-2.8
	c5.53-0.38,10.3,3.78,10.7,9.3l8.83,126.3l-20.34-4.07L239.54,290.5z M337,460c5.52,0,10-4.48,10-10s-4.48-10-10-10H157
	c-5.52,0-10,4.48-10,10s4.48,10,10,10H337z"/>
<path d="M147.24,452.17c1.2,5.4,6.54,8.8,11.93,7.6c5.4-1.199,8.8-6.55,7.6-11.939l-40-180c-1.2-5.4-6.55-8.8-11.94-7.6
	c-5.4,1.2-8.8,6.55-7.6,11.94l40,180H147.24z"/>
<path d="M126.35,282.82c9.47,2.38,19.9,4.76,30.96,6.98c23.5,4.7,46.7,8.07,68.4,9.48c7.4,0.47,14.5,0.72,21.3,0.72
	c6.8,0,14-0.25,21.3-0.72c21.8-1.4,45-4.77,68.4-9.48c11.1-2.22,21.5-4.6,31-6.98c5.7-1.43,9.9-2.56,12.1-3.2
	c5.301-1.54,8.4-7.08,6.9-12.4c-1.5-5.3-7.03-8.36-12.34-6.83c-2.061,0.6-6,1.6-11.46,3c-9.18,2.3-19.28,4.6-30,6.7
	c-22.68,4.5-45,7.73-65.76,9.1c-6.94,0.42-13.62,0.65-20.02,0.65s-13.07-0.23-20-0.68c-20.77-1.37-43.08-4.6-65.74-9.14
	c-10.72-2.16-20.82-4.47-30-6.77c-5.5-1.38-9.4-2.44-11.45-3.04c-5.3-1.5-10.87,1.55-12.4,6.86c-1.54,5.3,1.5,10.84,6.83,12.37
	c2.26,0.67,6.4,1.8,12.1,3.23L126.35,282.82z"/>
<path d="M327.24,447.83c-1.2,5.4,2.199,10.729,7.6,11.93c5.38,1.2,10.72-2.2,11.92-7.6l40-180c1.2-5.38-2.2-10.72-7.6-11.92
	c-5.38-1.2-10.72,2.2-11.92,7.6l-40,180V447.83z"/>
</svg>
