<?xml version="1.0" encoding="utf-8"?>
<!-- Generator: Adobe Illustrator 16.0.0, SVG Export Plug-In . SVG Version: 6.00 Build 0)  -->
<!DOCTYPE svg PUBLIC "-//W3C//DTD SVG 1.1//EN" "http://www.w3.org/Graphics/SVG/1.1/DTD/svg11.dtd">
<svg version="1.1" id="Layer_1" xmlns="http://www.w3.org/2000/svg" xmlns:xlink="http://www.w3.org/1999/xlink" x="0px" y="0px"
	 width="300px" height="400.267px" viewBox="-19.34 0 300 400.267" enable-background="new -19.34 0 300 400.267"
	 xml:space="preserve">
<path d="M194.99,22.053H70.67c-13.439,0-24,10.56-24,24v308.16c0,13.438,10.561,24,24,24h124.32c13.438,0,24-10.562,24-24V46.053
	C218.99,32.613,207.95,22.053,194.99,22.053z M130.67,35.493c0-0.96,0.96-1.92,1.92-1.92s1.92,0.96,1.92,1.92s-0.96,1.44-1.92,1.44
	S130.67,36.453,130.67,35.493z M146.03,47.013c0,0.96-0.96,1.44-1.44,1.44h-24c-0.96,0-1.439-0.96-1.439-1.44s0.96-1.44,1.439-1.44
	h24C145.55,45.573,146.03,46.053,146.03,47.013z M108.11,46.533c0,1.44-1.44,2.88-2.88,2.88c-1.44,0-2.881-1.44-2.881-2.88
	s1.44-2.88,2.881-2.88C106.67,43.653,108.11,45.093,108.11,46.533z M132.59,344.613c7.2,0,12.96,5.76,12.96,12.96
	c0,7.198-5.76,12.96-12.96,12.96s-12.96-5.762-12.96-12.96C119.63,350.373,125.389,344.613,132.59,344.613z M209.87,335.013
	c0,0.479-0.48,1.44-0.96,1.44l-151.2,0.479c-0.479,0-0.96-0.479-0.96-0.96l-0.96-268.32c0-0.48,0.48-1.44,0.96-1.44l151.2-0.48
	c0.479,0,0.96,0.48,0.96,0.96L209.87,335.013L209.87,335.013z"/>
</svg>
