<?xml version="1.0" encoding="utf-8"?>
<!-- Generator: Adobe Illustrator 16.0.0, SVG Export Plug-In . SVG Version: 6.00 Build 0)  -->
<!DOCTYPE svg PUBLIC "-//W3C//DTD SVG 1.1//EN" "http://www.w3.org/Graphics/SVG/1.1/DTD/svg11.dtd">
<svg version="1.1" id="Layer_1" xmlns="http://www.w3.org/2000/svg" xmlns:xlink="http://www.w3.org/1999/xlink" x="0px" y="0px"
	 width="334.905px" height="430.575px" viewBox="0 0 334.905 430.575" enable-background="new 0 0 334.905 430.575"
	 xml:space="preserve">
<path d="M285.448,42.488H49.427c-9.04,0-16.37,7.3-16.37,16.271v50.93h268.8v-50.93c0-8.98-7.318-16.271-16.398-16.271H285.448z
	 M138.648,80.888H61.847v-9.601h76.801V80.888z M258.647,90.488c-7.97,0-14.398-6.45-14.398-14.399c0-7.94,6.43-14.4,14.398-14.4
	c7.94,0,14.4,6.46,14.4,14.4C273.048,84.037,266.588,90.488,258.647,90.488z M168.048,179.838c-32.149,0-58.2,26.069-58.2,58.199
	c0,13.101,4.37,25.13,11.66,34.851l103.54-46.601C219.607,199.787,196.147,179.838,168.048,179.838z"/>
<path d="M33.048,119.287v252.53c0,9,7.16,16.271,15.96,16.271h236.87c8.83,0,15.97-7.28,15.97-16.271v-252.53H33.048z
	 M167.448,320.888c-47.72,0-86.4-38.7-86.4-86.4s38.681-86.399,86.4-86.399s86.398,38.699,86.398,86.399
	C253.847,282.188,215.168,320.888,167.448,320.888z"/>
</svg>
